<svg width="102" height="102" viewBox="0 0 102 102" fill="none" xmlns="http://www.w3.org/2000/svg">
<rect width="102" height="102" rx="26" fill="#4475F2"/>
<path d="M67.75 49.9376C67.7565 52.4123 67.1783 54.8536 66.0625 57.0626C64.7396 59.7096 62.7058 61.936 60.189 63.4925C57.6722 65.0489 54.7717 65.8739 51.8125 65.8751C49.3377 65.8815 46.8965 65.3033 44.6875 64.1876L34 67.7501L37.5625 57.0626C36.4467 54.8536 35.8685 52.4123 35.875 49.9376C35.8761 46.9783 36.7011 44.0779 38.2576 41.5611C39.814 39.0443 42.0405 37.0105 44.6875 35.6876C46.8965 34.5718 49.3377 33.9936 51.8125 34.0001H52.75C56.6582 34.2157 60.3495 35.8652 63.1171 38.6329C65.8848 41.4006 67.5344 45.0919 67.75 49.0001V49.9376Z" stroke="white" stroke-width="5" stroke-linecap="round" stroke-linejoin="round"/>
</svg>
