<svg width="102" height="102" viewBox="0 0 102 102" fill="none" xmlns="http://www.w3.org/2000/svg">
<rect width="102" height="102" rx="26" fill="#4475F2"/>
<g clip-path="url(#clip0_60_497)">
<path d="M67.1712 37.0222C66.2135 36.0641 65.0764 35.304 63.825 34.7855C62.5735 34.2669 61.2321 34 59.8774 34C58.5228 34 57.1814 34.2669 55.9299 34.7855C54.6784 35.304 53.5413 36.0641 52.5837 37.0222L50.5962 39.0097L48.6087 37.0222C46.6742 35.0878 44.0506 34.001 41.3149 34.001C38.5792 34.001 35.9556 35.0878 34.0212 37.0222C32.0867 38.9566 31 41.5802 31 44.3159C31 47.0516 32.0867 49.6753 34.0212 51.6097L36.0087 53.5972L50.5962 68.1847L65.1837 53.5972L67.1712 51.6097C68.1293 50.652 68.8893 49.515 69.4079 48.2635C69.9264 47.012 70.1933 45.6706 70.1933 44.3159C70.1933 42.9613 69.9264 41.6199 69.4079 40.3684C68.8893 39.1169 68.1293 37.9798 67.1712 37.0222Z" stroke="white" stroke-width="5" stroke-linecap="round" stroke-linejoin="round"/>
</g>
<defs>
<clipPath id="clip0_60_497">
<rect width="45" height="45" fill="white" transform="translate(29 28)"/>
</clipPath>
</defs>
</svg>
